<?xml version="1.0" encoding="UTF-8" standalone="no"?>
<svg xmlns="http://www.w3.org/2000/svg" viewBox="0 0 24 24" version="1.1">
   <rect fill="#ddeeff" ry="12" rx="12" y="0" x="0" height="24" width="24" />
   <rect fill="#336699" ry="10" rx="10" y="2" x="2" height="20" width="20" />
   <rect fill="#ffffff" ry="8" rx="8" y="4" x="4" height="16" width="16" />
   <path d="M5.5,7.5 18.5,5.5 18.5,17.5 4.5,17.5Z"
      fill="#ffffff"
      stroke="#ffffff"
      stroke-width="3.5"
      stroke-linecap="round" stroke-linejoin="round" />
    <!-- <path d="M16,12 19,12 21,14 21,17 19,19 16,19 14,17 14,14Z"
      fill="#ffffff"
      stroke="#ffffff"
      stroke-width="3.5"
      stroke-linecap="square" stroke-linejoin="round" /> -->
   <path d="M18.5,5.5 18.5,17.5 4.5,17.5 5.5,7.5 18.5,5.5"
      fill="#333333"
      stroke="#333333"
      stroke-width="1"
      stroke-linecap="round" stroke-linejoin="round" />
   <path d="M5.5,7.5 11.5,13 18.5,5.5Z"
      fill="#666666"
      stroke="#666666"
      stroke-width="1.01"
      stroke-linecap="round" stroke-linejoin="round" />
   <!-- <path d="M5,7 11.5,13 19,5"
      fill="none"
      stroke="#ffffff"
      stroke-width="1"
      stroke-linecap="round" stroke-linejoin="round" /> -->
   <!-- <path d="M16,12 19,12 21,14 21,17 19,19 16,19 14,17 14,14Z"
      fill="#cc3333"
      stroke="#cc3333"
      stroke-width="1"
      stroke-linecap="round" stroke-linejoin="round"/> -->
</svg>
